<svg id="Layer_1" enable-background="new 0 0 512 512" height="512" viewBox="0 0 512 512" width="512" xmlns="http://www.w3.org/2000/svg"><path
  d="m457.115 110.712-95.861-105.784c-2.843-3.138-6.88-4.928-11.115-4.928h-256.019c-23.776 0-43.12 19.344-43.12 43.12v425.76c0 23.776 19.344 43.12 43.12 43.12h323.76c23.776 0 43.12-19.344 43.12-43.12v-348.096c0-3.723-1.385-7.313-3.885-10.072zm-91.976-56.821 47.025 51.893h-47.025zm52.741 428.109h-323.76c-7.234 0-13.12-5.886-13.12-13.12v-425.76c0-7.234 5.886-13.12 13.12-13.12h241.019v90.784c0 8.284 6.716 15 15 15h80.861v333.096c0 7.234-5.886 13.12-13.12 13.12z"/><path
  d="m340.996 241.403c2.929 2.929 6.768 4.394 10.606 4.394s7.678-1.465 10.606-4.394l42.07-42.07c5.858-5.857 5.858-15.355 0-21.213-5.857-5.857-15.355-5.857-21.213 0l-31.464 31.464-8.776-8.776c-5.857-5.857-15.355-5.857-21.213 0s-5.858 15.355 0 21.213z"/><path
  d="m340.996 343.416c2.929 2.929 6.768 4.394 10.606 4.394s7.678-1.465 10.606-4.394l42.07-42.07c5.858-5.857 5.858-15.355 0-21.213-5.857-5.857-15.355-5.857-21.213 0l-31.464 31.464-8.776-8.776c-5.857-5.857-15.355-5.857-21.213 0s-5.858 15.355 0 21.213z"/><path
  d="m383.066 378.607-31.464 31.463-8.776-8.776c-5.857-5.857-15.355-5.857-21.213 0s-5.858 15.355 0 21.213l19.383 19.383c2.929 2.93 6.767 4.394 10.606 4.394 3.838 0 7.678-1.465 10.606-4.394l42.07-42.069c5.858-5.857 5.858-15.355 0-21.213-5.858-5.859-15.354-5.859-21.212-.001z"/><path d="m279.481 194.762h-154.92c-8.284 0-15 6.716-15 15s6.716 15 15 15h154.92c8.284 0 15-6.716 15-15s-6.716-15-15-15z"/><path d="m279.481 296.774h-154.92c-8.284 0-15 6.716-15 15s6.716 15 15 15h154.92c8.284 0 15-6.716 15-15s-6.716-15-15-15z"/><path d="m279.481 395.248h-154.92c-8.284 0-15 6.716-15 15s6.716 15 15 15h154.92c8.284 0 15-6.716 15-15s-6.716-15-15-15z"/><path d="m124.561 91.027h46.953c8.284 0 15-6.716 15-15s-6.716-15-15-15h-46.953c-8.284 0-15 6.716-15 15s6.715 15 15 15z"/><path d="m124.561 143.128h102.054c8.284 0 15-6.716 15-15s-6.716-15-15-15h-102.054c-8.284 0-15 6.716-15 15s6.715 15 15 15z"/></svg>
