<svg width="512" height="512" enable-background="new 0 0 512 512" version="1.1" viewBox="0 0 512 512" xmlns="http://www.w3.org/2000/svg">
 <path d="m365.14 9.215v96.569h87.511z"/>
 <path d="m350.14 135.78c-8.284 0-15-6.716-15-15v-120.78h-241.02c-23.776 0-43.12 19.344-43.12 43.12v425.76c0 23.776 19.344 43.12 43.12 43.12h323.76c23.776 0 43.12-19.344 43.12-43.12v-333.1zm-12.824 71.42c5.857-5.857 15.355-5.857 21.213 0l8.776 8.776 31.464-31.464c5.857-5.857 15.355-5.857 21.213 0s5.858 15.355 0 21.213l-42.07 42.07c-2.929 2.929-6.768 4.394-10.606 4.394s-7.678-1.465-10.606-4.394l-19.383-19.383c-5.858-5.856-5.858-15.354-1e-3 -21.212zm0 102.01c5.857-5.857 15.355-5.857 21.213 0l8.776 8.776 31.464-31.464c5.857-5.857 15.355-5.857 21.213 0s5.858 15.355 0 21.213l-42.07 42.07c-2.929 2.929-6.768 4.394-10.606 4.394s-7.678-1.465-10.606-4.394l-19.383-19.383c-5.858-5.856-5.858-15.355-1e-3 -21.212zm-212.75-258.19h46.953c8.284 0 15 6.716 15 15s-6.716 15-15 15h-46.953c-8.284 0-15-6.716-15-15s6.715-15 15-15zm0 52.101h102.05c8.284 0 15 6.716 15 15s-6.716 15-15 15h-102.05c-8.284 0-15-6.716-15-15s6.715-15 15-15zm154.92 332.12h-154.92c-8.284 0-15-6.716-15-15s6.716-15 15-15h154.92c8.284 0 15 6.716 15 15s-6.716 15-15.001 15zm0-98.474h-154.92c-8.284 0-15-6.716-15-15s6.716-15 15-15h154.92c8.284 0 15 6.716 15 15s-6.716 15-15.001 15zm0-102.01h-154.92c-8.284 0-15-6.716-15-15s6.716-15 15-15h154.92c8.284 0 15 6.716 15 15s-6.716 15-15.001 15zm140.5 171.46-42.07 42.069c-2.929 2.929-6.768 4.394-10.606 4.394-3.839 0-7.677-1.464-10.606-4.394l-19.383-19.383c-5.858-5.857-5.858-15.355 0-21.213 5.857-5.857 15.355-5.857 21.213 0l8.776 8.776 31.464-31.463c5.858-5.858 15.354-5.858 21.213 0 5.856 5.859 5.856 15.357-1e-3 21.214z"/>
</svg>
