<svg id="Capa_1" enable-background="new 0 0 512 512" height="512" viewBox="0 0 512 512" width="512" xmlns="http://www.w3.org/2000/svg"><g><path d="m449.097 242.299.316-242.299h-386.738l-.316 242.299h-24.026v269.701h435.333v-269.701zm-29.723-212.299-.298 228.581-99.915 65.847v-39.142c35.053-21.377 58.506-59.978 58.506-103.953 0-67.087-54.579-121.666-121.667-121.666-67.087 0-121.666 54.58-121.666 121.666 0 43.976 23.452 82.575 58.506 103.953v39.124l-100.502-66.211.298-228.199zm-163.375 340.149-33.16 16.58v-88.323c10.546 2.991 21.669 4.594 33.16 4.594s22.615-1.603 33.161-4.594v88.323zm-91.666-188.816c0-50.545 41.121-91.666 91.666-91.666s91.667 41.122 91.667 91.666-41.122 91.667-91.667 91.667-91.666-41.122-91.666-91.667zm28.506 179.003v74.935l63.16-31.58 63.161 31.58v-74.915l124.506-82.052v203.696h-375.332v-203.69z"/><path d="m242.792 229.671h30.001v-96.675h-44.253v30h14.252z"/></g></svg>