<svg width="512" height="512" enable-background="new 0 0 512 512" version="1.1" viewBox="0 0 512 512" xmlns="http://www.w3.org/2000/svg">
 <path d="m270.941 464.066c.005 0 .053-.013.059-.013v-359.957c-5.971-3.052-70.608-54.586-165.209-59.59l-15.791-.82v360.059l14.282.688c102.92 4.912 154.428 53.399 166.659 59.633z"/>
 <path d="m301 97.724v360.14c22.513-3.966 55.939-8.304 96.021-8.005 62.986 0.469 102.82 11.926 114.98 13.889v-359.8c-4.937-0.551-49.829-13.722-114.98-14.504-28.424-0.342-60.975 1.828-96.021 8.279zm45 259.39v-176.04l132.04 88.022z"/>
 <path d="m376 237.12v63.955l47.959-31.977z"/>
 <path d="m190.11 452.54c-22.348-8.888-51.629-16.439-87.266-18.135l-42.847-2.065v-337.22c-34.493 5.127-52.932 10.668-60 12.259v360.94l18.633-4.673c55.651-13.896 114.59-17.522 171.48-11.104z"/>
</svg>
