<svg width="512" height="512" enable-background="new 0 0 512 512" version="1.1" viewBox="0 0 512 512" xmlns="http://www.w3.org/2000/svg">
 <path d="m319.16 360.37v74.897l-63.162-31.581-63.16 31.581v-74.953l-154.51-101.79v253.47h435.33v-253.45z"/>
 <path d="m192.84 324.39v-39.107c-35.053-21.377-58.506-59.977-58.506-103.95 0-67.087 54.579-121.67 121.67-121.67 67.088 0 121.67 54.58 121.67 121.67 0 43.975-23.452 82.575-58.506 103.95v39.159l124.78-82.231 0.316-242.21h-376.42l-0.316 241.82z"/>
 <path d="m289.16 298.41c-10.546 2.991-21.67 4.594-33.161 4.594s-22.615-1.603-33.16-4.594v88.323l33.16-16.58 33.161 16.58z"/>
 <path d="m256 273c50.545 0 91.667-41.122 91.667-91.667s-41.122-91.666-91.667-91.666-91.666 41.122-91.666 91.666 41.122 91.667 91.666 91.667zm-27.459-140h44.252v96.675h-30v-66.675h-14.252z"/>
</svg>
