<?xml version="1.0" encoding="UTF-8" standalone="no"?>
<svg
   xmlns:dc="http://purl.org/dc/elements/1.1/"
   xmlns:cc="http://creativecommons.org/ns#"
   xmlns:rdf="http://www.w3.org/1999/02/22-rdf-syntax-ns#"
   xmlns:svg="http://www.w3.org/2000/svg"
   xmlns="http://www.w3.org/2000/svg"
   xmlns:sodipodi="http://sodipodi.sourceforge.net/DTD/sodipodi-0.dtd"
   xmlns:inkscape="http://www.inkscape.org/namespaces/inkscape"
   width="512"
   height="512"
   viewBox="0 0 512 512"
   version="1.1"
   id="svg8"
   sodipodi:docname="notificationsalert.svg"
   inkscape:version="0.92.4 (5da689c313, 2019-01-14)">
  <metadata
     id="metadata14">
    <rdf:RDF>
      <cc:Work
         rdf:about="">
        <dc:format>image/svg+xml</dc:format>
        <dc:type
           rdf:resource="http://purl.org/dc/dcmitype/StillImage" />
        <dc:title>ionicons-v5-j</dc:title>
      </cc:Work>
    </rdf:RDF>
  </metadata>
  <defs
     id="defs12" />
  <sodipodi:namedview
     pagecolor="#ffffff"
     bordercolor="#666666"
     borderopacity="1"
     objecttolerance="10"
     gridtolerance="10"
     guidetolerance="10"
     inkscape:pageopacity="0"
     inkscape:pageshadow="2"
     inkscape:window-width="1318"
     inkscape:window-height="706"
     id="namedview10"
     showgrid="false"
     inkscape:zoom="0.4609375"
     inkscape:cx="-106.30508"
     inkscape:cy="256"
     inkscape:window-x="48"
     inkscape:window-y="30"
     inkscape:window-maximized="1"
     inkscape:current-layer="svg8"
     inkscape:pagecheckerboard="true" />
  <title
     id="title2">ionicons-v5-j</title>
  <path
     d="M440.08,341.31c-1.66-2-3.29-4-4.89-5.93-22-26.61-35.31-42.67-35.31-118,0-39-9.33-71-27.72-95-13.56-17.73-31.89-31.18-56.05-41.12a3,3,0,0,1-.82-.67C306.6,51.49,282.82,32,256,32s-50.59,19.49-59.28,48.56a3.13,3.13,0,0,1-.81.65c-56.38,23.21-83.78,67.74-83.78,136.14,0,75.36-13.29,91.42-35.31,118-1.6,1.93-3.23,3.89-4.89,5.93a35.16,35.16,0,0,0-4.65,37.62c6.17,13,19.32,21.07,34.33,21.07H410.5c14.94,0,28-8.06,34.19-21A35.17,35.17,0,0,0,440.08,341.31Z"
     id="path4"
     style="fill:#000000;fill-opacity:1" />
  <path
     d="M256,480a80.06,80.06,0,0,0,70.44-42.13,4,4,0,0,0-3.54-5.87H189.12a4,4,0,0,0-3.55,5.87A80.06,80.06,0,0,0,256,480Z"
     id="path6"
     style="fill:#000000;fill-opacity:1" />
  <circle
     style="opacity:1;vector-effect:none;fill:#000000;fill-opacity:1;fill-rule:nonzero;stroke:none;stroke-width:0.95555353;stroke-linecap:butt;stroke-linejoin:miter;stroke-miterlimit:4;stroke-dasharray:none;stroke-dashoffset:0;stroke-opacity:1"
     id="path821"
     cx="456.67795"
     cy="454.50848"
     r="50.983051" />
</svg>
