<?xml version="1.0" encoding="UTF-8" standalone="no"?>
<svg
   xmlns:dc="http://purl.org/dc/elements/1.1/"
   xmlns:cc="http://creativecommons.org/ns#"
   xmlns:rdf="http://www.w3.org/1999/02/22-rdf-syntax-ns#"
   xmlns:svg="http://www.w3.org/2000/svg"
   xmlns="http://www.w3.org/2000/svg"
   xmlns:sodipodi="http://sodipodi.sourceforge.net/DTD/sodipodi-0.dtd"
   xmlns:inkscape="http://www.inkscape.org/namespaces/inkscape"
   width="512"
   height="512"
   viewBox="0 0 512 512"
   version="1.1"
   id="svg8"
   sodipodi:docname="settings.svg"
   inkscape:version="0.92.4 (5da689c313, 2019-01-14)">
  <metadata
     id="metadata14">
    <rdf:RDF>
      <cc:Work
         rdf:about="">
        <dc:format>image/svg+xml</dc:format>
        <dc:type
           rdf:resource="http://purl.org/dc/dcmitype/StillImage" />
        <dc:title>ionicons-v5-q</dc:title>
      </cc:Work>
    </rdf:RDF>
  </metadata>
  <defs
     id="defs12" />
  <sodipodi:namedview
     pagecolor="#ffffff"
     bordercolor="#666666"
     borderopacity="1"
     objecttolerance="10"
     gridtolerance="10"
     guidetolerance="10"
     inkscape:pageopacity="0"
     inkscape:pageshadow="2"
     inkscape:window-width="1318"
     inkscape:window-height="706"
     id="namedview10"
     showgrid="false"
     inkscape:zoom="0.4609375"
     inkscape:cx="28.20339"
     inkscape:cy="256"
     inkscape:window-x="48"
     inkscape:window-y="30"
     inkscape:window-maximized="1"
     inkscape:current-layer="svg8" />
  <title
     id="title2">ionicons-v5-q</title>
  <circle
     cx="256"
     cy="256"
     r="48"
     id="circle4"
     style="fill:#f5f5f5;fill-opacity:1" />
  <path
     d="M470.39,300l-.47-.38-31.56-24.75a16.11,16.11,0,0,1-6.1-13.33l0-11.56a16,16,0,0,1,6.11-13.22L469.92,212l.47-.38a26.68,26.68,0,0,0,5.9-34.06l-42.71-73.9a1.59,1.59,0,0,1-.13-.22A26.86,26.86,0,0,0,401,92.14l-.35.13L363.55,107.2a15.94,15.94,0,0,1-14.47-1.29q-4.92-3.1-10-5.86a15.94,15.94,0,0,1-8.19-11.82L325.3,48.64l-.12-.72A27.22,27.22,0,0,0,298.76,26H213.24a26.92,26.92,0,0,0-26.45,22.39l-.09.56-5.57,39.67A16,16,0,0,1,173,100.44c-3.42,1.84-6.76,3.79-10,5.82a15.92,15.92,0,0,1-14.43,1.27l-37.13-15-.35-.14a26.87,26.87,0,0,0-32.48,11.34l-.13.22L35.71,177.9A26.71,26.71,0,0,0,41.61,212l.47.38,31.56,24.75a16.11,16.11,0,0,1,6.1,13.33l0,11.56a16,16,0,0,1-6.11,13.22L42.08,300l-.47.38a26.68,26.68,0,0,0-5.9,34.06l42.71,73.9a1.59,1.59,0,0,1,.13.22A26.86,26.86,0,0,0,111,419.86l.35-.13,37.07-14.93a15.94,15.94,0,0,1,14.47,1.29q4.92,3.11,10,5.86a15.94,15.94,0,0,1,8.19,11.82l5.56,39.59.12.72A27.22,27.22,0,0,0,213.24,486h85.52a26.92,26.92,0,0,0,26.45-22.39l.09-.56,5.57-39.67a16,16,0,0,1,8.18-11.82c3.42-1.84,6.76-3.79,10-5.82a15.92,15.92,0,0,1,14.43-1.27l37.13,14.95.35.14a26.85,26.85,0,0,0,32.48-11.34,2.53,2.53,0,0,1,.13-.22l42.71-73.89A26.7,26.7,0,0,0,470.39,300ZM335.91,259.76a80,80,0,1,1-83.66-83.67A80.21,80.21,0,0,1,335.91,259.76Z"
     id="path6"
     style="fill:#f5f5f5;fill-opacity:1" />
</svg>
